<svg width="512" height="512" viewBox="0 0 512 512" xmlns="http://www.w3.org/2000/svg" shape-rendering="crispEdges">
  <defs>
    <linearGradient id="bg" x1="32" y1="32" x2="480" y2="480" gradientUnits="userSpaceOnUse">
      <stop stop-color="#0E1118"/>
      <stop offset="1" stop-color="#07090D"/>
    </linearGradient>
  </defs>

  <rect x="24" y="24" width="464" height="464" rx="84" fill="url(#bg)"/>
  <rect x="40" y="40" width="432" height="432" rx="70" stroke="#E7ECF8" stroke-opacity="0.28" stroke-width="2" fill="none"/>

  <g fill="#F7F9FF">
    <rect x="156" y="128" width="24" height="256"/>

    <rect x="180" y="128" width="120" height="24"/>
    <rect x="300" y="152" width="24" height="24"/>
    <rect x="324" y="176" width="24" height="48"/>
    <rect x="300" y="224" width="24" height="24"/>
    <rect x="180" y="248" width="120" height="24"/>

    <rect x="228" y="272" width="24" height="24"/>
    <rect x="252" y="296" width="24" height="24"/>
    <rect x="276" y="320" width="24" height="24"/>
    <rect x="300" y="344" width="24" height="24"/>
    <rect x="324" y="368" width="24" height="24"/>
  </g>
</svg>
